# xmcd
#
# Track frame offsets:
#	150
#	16388
#	30244
#	48916
#	65754
#	78556
#	93466
#	107596
#	121926
#	138039
#	157747
#	174520
#	189555
#	206003
#	223301
#	240919
#	259816
#	277643
#	292888
#	305880
#	321715
#
# Disc length: 4488 seconds
#
# Revision: 1
# Processed by: cddbd v1.5.2PL0 Copyright (c) Steve Scherf et al.
# Submitted via: audiograbber 1.83.01
#
DISCID=25118615
DTITLE=Various Artist - So Country 2013 - CD 2
DYEAR=2013
DGENRE=Country
TTITLE0=The McClymonts - Two Worlds Collide
TTITLE1=McAlister Kemp - Country Proud
TTITLE2=Troy Cassar - Home
TTITLE3=Alan Jackson - So You Don't Have To Love Me Anymore
TTITLE4=Toby Keith - I Like Girls That Drink Beer
TTITLE5=Pistol Annies - Takin' Pills
TTITLE6=The Henningsens - American Beautiful
TTITLE7=Catherine Britt - Charlestown Road
TTITLE8=Adam Harvey - Dig Two Graves
TTITLE9=Becci Cole - Waitress
TTITLE10=Casey James - Crying On A Suitcase
TTITLE11=Joe Nichols - Take It Off (single version)
TTITLE12=Jane Denham - Shelter
TTITLE13=Scotty McCreery - The Trouble With Girls
TTITLE14=Roo Arcus - This Here Cowboy
TTITLE15=Ronnie Dunn - Cost Of Livin'
TTITLE16=Amber Lawrence - Try
TTITLE17=Josh Turner - Time Is Love
TTITLE18=Paul Costa - Tractors and Bikes
TTITLE19=Jasmine Rae - Hunky Country Boys
TTITLE20=Easton Corbin - Lovin' You Is Fun
EXTD=
EXTT0=
EXTT1=
EXTT2=
EXTT3=
EXTT4=
EXTT5=
EXTT6=
EXTT7=
EXTT8=
EXTT9=
EXTT10=
EXTT11=
EXTT12=
EXTT13=
EXTT14=
EXTT15=
EXTT16=
EXTT17=
EXTT18=
EXTT19=
EXTT20=
PLAYORDER=
